@startuml

Persona *-- Sexo
Viaje *-- "*" Persona
Viaje *-- "*" Ubicacion
Viaje o-- TipoDeReaccion
Viaje -> CalculadorDemora
CalculadorDemora ..> Ubicacion
CalculadorDemora ..> Viaje

class Persona{
    -nombre: String
    -apellido: String
    -edad: Integer
    -sexo: Sexo

    +comenzarTrayecto(): Void
    +comenzarCuidado(): Void
    +puedeCuidarEnEsteMomento(): Boolean
    +deshabilitarNotificaciones() : Void
}

Enum Sexo{
    FEMENINO,
    MASCULINO
}

class Viaje{
    -transeunte: Persona
    -origen: Ubicacion
    -paradas: ArrayList<Ubicacion>
    -destino: Ubicacion
    -tiempoDetenido: Float
    -cuidadores: HashSet<Persona>
    -calculadorDemora: CalculadorDemora
    -tipoDeReaccion: TipoDeReaccion

    +comenzarViaje(): Void
    +reaccionarAIncidente(): Void
    +esperar(Float tiempoEstimado): Void
    +deshabilitarNotificaciones(Persona unTranseunte) : Void
    +calcularDistancia(Ubicacion origen, Ubicacion destino): Float
}

class CalculadorDemora{
    -tiempoParaTransladarseSobreMetro: Float

    +calcularDemora(Viaje unViaje, Ubicacion origen, Ubicacion ... parada): Float

    +calcularDemoraEntre2Ubicaciones(Viaje unViaje, Ubicacion origen, Ubicacion destino): Float

    +calcularDistancia(Viaje unViaje, Ubicacion origen, Ubicacion destino): Float
}

class Ubicacion{
    -latitud: Double
    -longitud: Double
    -direccion: String
}

interface TipoDeReaccion{
    +reaccionarAIncidente(Transeunte: unTranseunte): Void
}

class EsperarNMinutos implements TipoDeReaccion{
    +reaccionarAIncidente(Transeunte: unTranseunte): Void
}

class InformarACuidadores implements TipoDeReaccion{
    +reaccionarAIncidente(Transeunte: unTranseunte): Void
}

class LlamarALaPolicia implements TipoDeReaccion{
    +reaccionarAIncidente(Transeunte: unTranseunte): Void
}

class LlamarAUsuario implements TipoDeReaccion{
    +reaccionarAIncidente(Transeunte: unTranseunte): Void
}

@enduml